<svg width="216" height="30" viewBox="0 0 216 30" fill="none" xmlns="http://www.w3.org/2000/svg">
<path d="M18.4766 3.872V7.94H11.7806V29H6.74058V7.94H0.0445782V3.872H18.4766ZM30.8299 29.252C29.0779 29.252 27.4939 28.952 26.0779 28.352C24.6859 27.752 23.5819 26.888 22.7659 25.76C21.9499 24.632 21.5299 23.3 21.5059 21.764H26.9059C26.9779 22.796 27.3379 23.612 27.9859 24.212C28.6579 24.812 29.5699 25.112 30.7219 25.112C31.8979 25.112 32.8219 24.836 33.4939 24.284C34.1659 23.708 34.5019 22.964 34.5019 22.052C34.5019 21.308 34.2739 20.696 33.8179 20.216C33.3619 19.736 32.7859 19.364 32.0899 19.1C31.4179 18.812 30.4819 18.5 29.2819 18.164C27.6499 17.684 26.3179 17.216 25.2859 16.76C24.2779 16.28 23.4019 15.572 22.6579 14.636C21.9379 13.676 21.5779 12.404 21.5779 10.82C21.5779 9.332 21.9499 8.036 22.6939 6.932C23.4379 5.828 24.4819 4.988 25.8259 4.412C27.1699 3.812 28.7059 3.512 30.4339 3.512C33.0259 3.512 35.1259 4.148 36.7339 5.42C38.3659 6.668 39.2659 8.42 39.4339 10.676H33.8899C33.8419 9.812 33.4699 9.104 32.7739 8.552C32.1019 7.976 31.2019 7.688 30.0739 7.688C29.0899 7.688 28.2979 7.94 27.6979 8.444C27.1219 8.948 26.8339 9.68 26.8339 10.64C26.8339 11.312 27.0499 11.876 27.4819 12.332C27.9379 12.764 28.4899 13.124 29.1379 13.412C29.8099 13.676 30.7459 13.988 31.9459 14.348C33.5779 14.828 34.9099 15.308 35.9419 15.788C36.9739 16.268 37.8619 16.988 38.6059 17.948C39.3499 18.908 39.7219 20.168 39.7219 21.728C39.7219 23.072 39.3739 24.32 38.6779 25.472C37.9819 26.624 36.9619 27.548 35.6179 28.244C34.2739 28.916 32.6779 29.252 30.8299 29.252ZM52.7674 29.252C51.0154 29.252 49.4314 28.952 48.0154 28.352C46.6234 27.752 45.5194 26.888 44.7034 25.76C43.8874 24.632 43.4674 23.3 43.4434 21.764H48.8434C48.9154 22.796 49.2754 23.612 49.9234 24.212C50.5954 24.812 51.5074 25.112 52.6594 25.112C53.8354 25.112 54.7594 24.836 55.4314 24.284C56.1034 23.708 56.4394 22.964 56.4394 22.052C56.4394 21.308 56.2114 20.696 55.7554 20.216C55.2994 19.736 54.7234 19.364 54.0274 19.1C53.3554 18.812 52.4194 18.5 51.2194 18.164C49.5874 17.684 48.2554 17.216 47.2234 16.76C46.2154 16.28 45.3394 15.572 44.5954 14.636C43.8754 13.676 43.5154 12.404 43.5154 10.82C43.5154 9.332 43.8874 8.036 44.6314 6.932C45.3754 5.828 46.4194 4.988 47.7634 4.412C49.1074 3.812 50.6434 3.512 52.3714 3.512C54.9634 3.512 57.0634 4.148 58.6714 5.42C60.3034 6.668 61.2034 8.42 61.3714 10.676H55.8274C55.7794 9.812 55.4074 9.104 54.7114 8.552C54.0394 7.976 53.1394 7.688 52.0114 7.688C51.0274 7.688 50.2354 7.94 49.6354 8.444C49.0594 8.948 48.7714 9.68 48.7714 10.64C48.7714 11.312 48.9874 11.876 49.4194 12.332C49.8754 12.764 50.4274 13.124 51.0754 13.412C51.7474 13.676 52.6834 13.988 53.8834 14.348C55.5154 14.828 56.8474 15.308 57.8794 15.788C58.9114 16.268 59.7994 16.988 60.5434 17.948C61.2874 18.908 61.6594 20.168 61.6594 21.728C61.6594 23.072 61.3114 24.32 60.6154 25.472C59.9194 26.624 58.8994 27.548 57.5554 28.244C56.2114 28.916 54.6154 29.252 52.7674 29.252ZM90.123 3.872V7.94H79.647V14.384H87.675V18.38H79.647V29H74.607V3.872H90.123ZM96.2529 6.68C95.3649 6.68 94.6209 6.404 94.0209 5.852C93.4449 5.276 93.1569 4.568 93.1569 3.728C93.1569 2.888 93.4449 2.192 94.0209 1.64C94.6209 1.064 95.3649 0.775999 96.2529 0.775999C97.1409 0.775999 97.8729 1.064 98.4489 1.64C99.0489 2.192 99.3489 2.888 99.3489 3.728C99.3489 4.568 99.0489 5.276 98.4489 5.852C97.8729 6.404 97.1409 6.68 96.2529 6.68ZM98.7369 9.056V29H93.6969V9.056H98.7369ZM114.768 8.768C117.144 8.768 119.064 9.524 120.528 11.036C121.992 12.524 122.724 14.612 122.724 17.3V29H117.684V17.984C117.684 16.4 117.288 15.188 116.496 14.348C115.704 13.484 114.624 13.052 113.256 13.052C111.864 13.052 110.76 13.484 109.944 14.348C109.152 15.188 108.756 16.4 108.756 17.984V29H103.716V9.056H108.756V11.54C109.428 10.676 110.28 10.004 111.312 9.524C112.368 9.02 113.52 8.768 114.768 8.768ZM126.221 18.956C126.221 16.94 126.617 15.152 127.409 13.592C128.225 12.032 129.317 10.832 130.685 9.992C132.077 9.152 133.625 8.732 135.329 8.732C136.817 8.732 138.113 9.032 139.217 9.632C140.345 10.232 141.245 10.988 141.917 11.9V9.056H146.993V29H141.917V26.084C141.269 27.02 140.369 27.8 139.217 28.424C138.089 29.024 136.781 29.324 135.293 29.324C133.613 29.324 132.077 28.892 130.685 28.028C129.317 27.164 128.225 25.952 127.409 24.392C126.617 22.808 126.221 20.996 126.221 18.956ZM141.917 19.028C141.917 17.804 141.677 16.76 141.197 15.896C140.717 15.008 140.069 14.336 139.253 13.88C138.437 13.4 137.561 13.16 136.625 13.16C135.689 13.16 134.825 13.388 134.033 13.844C133.241 14.3 132.593 14.972 132.089 15.86C131.609 16.724 131.369 17.756 131.369 18.956C131.369 20.156 131.609 21.212 132.089 22.124C132.593 23.012 133.241 23.696 134.033 24.176C134.849 24.656 135.713 24.896 136.625 24.896C137.561 24.896 138.437 24.668 139.253 24.212C140.069 23.732 140.717 23.06 141.197 22.196C141.677 21.308 141.917 20.252 141.917 19.028ZM162.968 8.768C165.344 8.768 167.264 9.524 168.728 11.036C170.192 12.524 170.924 14.612 170.924 17.3V29H165.884V17.984C165.884 16.4 165.488 15.188 164.696 14.348C163.904 13.484 162.824 13.052 161.456 13.052C160.064 13.052 158.96 13.484 158.144 14.348C157.352 15.188 156.956 16.4 156.956 17.984V29H151.916V9.056H156.956V11.54C157.628 10.676 158.48 10.004 159.512 9.524C160.568 9.02 161.72 8.768 162.968 8.768ZM174.42 19.028C174.42 16.964 174.84 15.164 175.68 13.628C176.52 12.068 177.684 10.868 179.172 10.028C180.66 9.164 182.364 8.732 184.284 8.732C186.756 8.732 188.796 9.356 190.404 10.604C192.036 11.828 193.128 13.556 193.68 15.788H188.244C187.956 14.924 187.464 14.252 186.768 13.772C186.096 13.268 185.256 13.016 184.248 13.016C182.808 13.016 181.668 13.544 180.828 14.6C179.988 15.632 179.568 17.108 179.568 19.028C179.568 20.924 179.988 22.4 180.828 23.456C181.668 24.488 182.808 25.004 184.248 25.004C186.288 25.004 187.62 24.092 188.244 22.268H193.68C193.128 24.428 192.036 26.144 190.404 27.416C188.772 28.688 186.732 29.324 184.284 29.324C182.364 29.324 180.66 28.904 179.172 28.064C177.684 27.2 176.52 26 175.68 24.464C174.84 22.904 174.42 21.092 174.42 19.028ZM215.913 18.596C215.913 19.316 215.865 19.964 215.769 20.54H201.189C201.309 21.98 201.813 23.108 202.701 23.924C203.589 24.74 204.681 25.148 205.977 25.148C207.849 25.148 209.181 24.344 209.973 22.736H215.409C214.833 24.656 213.729 26.24 212.097 27.488C210.465 28.712 208.461 29.324 206.085 29.324C204.165 29.324 202.437 28.904 200.901 28.064C199.389 27.2 198.201 25.988 197.337 24.428C196.497 22.868 196.077 21.068 196.077 19.028C196.077 16.964 196.497 15.152 197.337 13.592C198.177 12.032 199.353 10.832 200.865 9.992C202.377 9.152 204.117 8.732 206.085 8.732C207.981 8.732 209.673 9.14 211.161 9.956C212.673 10.772 213.837 11.936 214.653 13.448C215.493 14.936 215.913 16.652 215.913 18.596ZM210.693 17.156C210.669 15.86 210.201 14.828 209.289 14.06C208.377 13.268 207.261 12.872 205.941 12.872C204.693 12.872 203.637 13.256 202.773 14.024C201.933 14.768 201.417 15.812 201.225 17.156H210.693Z" fill="#5429CC"/>
</svg>
